# Blender 3.4.1
# www.blender.org
mtllib ball_volume.mtl
o Sphere.002
v 0.000000 0.707107 -0.707107
v 0.000000 0.258819 -0.965926
v 0.000000 -0.258819 -0.965926
v 0.000000 -0.500000 -0.866025
v 0.129410 0.965926 -0.224144
v 0.250000 0.866025 -0.433013
v 0.353553 0.707107 -0.612372
v 0.433013 0.500000 -0.750000
v 0.482963 0.258819 -0.836516
v 0.500000 0.000000 -0.866025
v 0.482963 -0.258819 -0.836516
v 0.433013 -0.500000 -0.750000
v 0.353553 -0.707107 -0.612372
v 0.250000 -0.866025 -0.433013
v 0.129410 -0.965926 -0.224144
v 0.224144 0.965926 -0.129410
v 0.433013 0.866025 -0.250000
v 0.612372 0.707107 -0.353553
v 0.750000 0.500000 -0.433013
v 0.836516 0.258819 -0.482963
v 0.866025 0.000000 -0.500000
v 0.836516 -0.258819 -0.482963
v 0.750000 -0.500000 -0.433013
v 0.612372 -0.707107 -0.353553
v 0.433013 -0.866025 -0.250000
v 0.224144 -0.965926 -0.129410
v 0.258819 0.965926 0.000000
v 0.500000 0.866025 0.000000
v 0.707107 0.707107 0.000000
v 0.866025 0.500000 0.000000
v 0.965926 0.258819 0.000000
v 1.000000 0.000000 0.000000
v 0.965926 -0.258819 0.000000
v 0.866025 -0.500000 0.000000
v 0.707107 -0.707107 0.000000
v 0.500000 -0.866025 0.000000
v 0.258819 -0.965926 0.000000
v 0.224144 0.965926 0.129410
v 0.433013 0.866025 0.250000
v 0.612372 0.707107 0.353553
v 0.750000 0.500000 0.433013
v 0.836516 0.258819 0.482963
v 0.866025 0.000000 0.500000
v 0.836516 -0.258819 0.482963
v 0.750000 -0.500000 0.433013
v 0.612372 -0.707107 0.353553
v 0.433013 -0.866025 0.250000
v 0.224144 -0.965926 0.129410
v 0.129410 0.965926 0.224144
v 0.250000 0.866025 0.433013
v 0.353553 0.707107 0.612372
v 0.433013 0.500000 0.750000
v 0.482963 0.258819 0.836516
v 0.500000 0.000000 0.866025
v 0.482963 -0.258819 0.836516
v 0.433013 -0.500000 0.750000
v 0.353553 -0.707107 0.612372
v 0.250000 -0.866025 0.433013
v 0.129410 -0.965926 0.224144
v 0.000000 0.965926 0.258819
v 0.000000 0.866025 0.500000
v -0.000000 0.707107 0.707107
v -0.000000 0.500000 0.866025
v -0.000000 0.258819 0.965926
v 0.000000 0.000000 1.000000
v -0.000000 -0.258819 0.965926
v -0.000000 -0.500000 0.866025
v -0.000000 -0.707107 0.707107
v 0.000000 -0.866025 0.500000
v 0.000000 -0.965926 0.258819
v -0.129410 0.965926 0.224144
v -0.250000 0.866025 0.433013
v -0.353553 0.707107 0.612372
v -0.433013 0.500000 0.750000
v -0.482963 0.258819 0.836516
v -0.500000 0.000000 0.866025
v -0.482963 -0.258819 0.836516
v -0.433013 -0.500000 0.750000
v -0.353553 -0.707107 0.612372
v -0.250000 -0.866025 0.433013
v -0.129410 -0.965926 0.224144
v -0.224144 0.965926 0.129410
v -0.433013 0.866025 0.250000
v -0.612372 0.707107 0.353553
v -0.750000 0.500000 0.433013
v -0.836516 0.258819 0.482963
v -0.866025 0.000000 0.500000
v -0.836516 -0.258819 0.482963
v -0.750000 -0.500000 0.433013
v -0.612372 -0.707107 0.353553
v -0.433013 -0.866025 0.250000
v -0.224144 -0.965926 0.129410
v 0.000000 1.000000 0.000000
v -0.258819 0.965926 0.000000
v -0.500000 0.866025 0.000000
v -0.707107 0.707107 -0.000000
v -0.866025 0.500000 -0.000000
v -0.965926 0.258819 -0.000000
v -1.000000 0.000000 0.000000
v -0.965926 -0.258819 -0.000000
v -0.866025 -0.500000 -0.000000
v -0.707107 -0.707107 -0.000000
v -0.500000 -0.866025 0.000000
v -0.258819 -0.965926 0.000000
v -0.224144 0.965926 -0.129410
v -0.433013 0.866025 -0.250000
v -0.612372 0.707107 -0.353553
v -0.750000 0.500000 -0.433013
v -0.836516 0.258819 -0.482963
v -0.866025 0.000000 -0.500000
v -0.836516 -0.258819 -0.482963
v -0.750000 -0.500000 -0.433013
v -0.612372 -0.707107 -0.353553
v -0.433013 -0.866025 -0.250000
v -0.224144 -0.965926 -0.129410
v -0.129410 0.965926 -0.224144
v -0.250000 0.866025 -0.433013
v -0.353553 0.707107 -0.612372
v -0.433013 0.500000 -0.750000
v -0.482963 0.258819 -0.836516
v -0.500000 0.000000 -0.866025
v -0.482963 -0.258819 -0.836516
v -0.433013 -0.500000 -0.750000
v -0.353553 -0.707107 -0.612372
v -0.250000 -0.866025 -0.433013
v -0.129410 -0.965926 -0.224144
v 0.000000 0.965926 -0.258819
v 0.000000 0.866025 -0.500000
v 0.000000 0.500000 -0.866025
v 0.000000 0.000000 -1.000000
v 0.000000 -0.707107 -0.707107
v 0.000000 -0.866025 -0.500000
v 0.000000 -0.965926 -0.258819
v 0.000000 -1.000000 0.000000
vn -0.0000 -0.8566 -0.5159
vn 0.1394 -0.9603 -0.2415
vn -0.0000 -0.9603 -0.2789
vn -0.0000 0.9603 -0.2789
vn -0.0000 1.0000 -0.0000
vn 0.1394 0.9603 -0.2415
vn -0.0000 -0.2536 -0.9673
vn 0.4356 -0.4909 -0.7545
vn -0.0000 -0.4909 -0.8712
vn -0.0000 0.4909 -0.8712
vn 0.4837 0.2536 -0.8377
vn -0.0000 0.2536 -0.9673
vn -0.0000 -1.0000 -0.0000
vn 0.2580 0.8566 -0.4468
vn -0.0000 0.8566 -0.5159
vn -0.0000 -0.6965 -0.7176
vn 0.3588 -0.6965 -0.6215
vn -0.0000 -0.0000 -1.0000
vn 0.5000 -0.0000 -0.8660
vn 0.3588 0.6965 -0.6215
vn -0.0000 0.6965 -0.7176
vn 0.2580 -0.8566 -0.4468
vn 0.4837 -0.2536 -0.8377
vn 0.4356 0.4909 -0.7545
vn 0.8660 -0.0000 -0.5000
vn 0.6215 0.6965 -0.3588
vn 0.4468 -0.8566 -0.2580
vn 0.8377 -0.2536 -0.4837
vn 0.7545 0.4909 -0.4356
vn 0.2415 -0.9603 -0.1394
vn 0.2415 0.9603 -0.1394
vn 0.7545 -0.4909 -0.4356
vn 0.8377 0.2536 -0.4837
vn 0.4468 0.8566 -0.2580
vn 0.6215 -0.6965 -0.3588
vn 0.8712 -0.4909 -0.0000
vn 0.8712 0.4909 -0.0000
vn 0.9673 0.2536 -0.0000
vn 0.2789 -0.9603 -0.0000
vn 0.2789 0.9603 -0.0000
vn 0.5159 0.8566 -0.0000
vn 0.7176 -0.6965 -0.0000
vn 1.0000 -0.0000 -0.0000
vn 0.7176 0.6965 -0.0000
vn 0.5159 -0.8566 -0.0000
vn 0.9673 -0.2536 -0.0000
vn 0.8660 -0.0000 0.5000
vn 0.8377 -0.2536 0.4837
vn 0.7545 0.4909 0.4356
vn 0.2415 -0.9603 0.1394
vn 0.2415 0.9603 0.1394
vn 0.7545 -0.4909 0.4356
vn 0.8377 0.2536 0.4837
vn 0.4468 0.8566 0.2580
vn 0.6215 -0.6965 0.3588
vn 0.6215 0.6965 0.3588
vn 0.4468 -0.8566 0.2580
vn 0.3588 -0.6965 0.6215
vn 0.5000 -0.0000 0.8660
vn 0.3588 0.6965 0.6215
vn 0.2580 -0.8566 0.4468
vn 0.4837 -0.2536 0.8377
vn 0.4356 0.4909 0.7545
vn 0.1394 -0.9603 0.2415
vn 0.1394 0.9603 0.2415
vn 0.4356 -0.4909 0.7545
vn 0.4837 0.2536 0.8377
vn 0.2580 0.8566 0.4468
vn -0.0000 0.9603 0.2789
vn -0.0000 -0.4909 0.8712
vn -0.0000 0.2536 0.9673
vn -0.0000 -0.9603 0.2789
vn -0.0000 0.8566 0.5159
vn -0.0000 -0.6965 0.7176
vn -0.0000 -0.0000 1.0000
vn -0.0000 0.6965 0.7176
vn -0.0000 -0.8566 0.5159
vn -0.0000 -0.2536 0.9673
vn -0.0000 0.4909 0.8712
vn -0.2580 -0.8566 0.4468
vn -0.5000 -0.0000 0.8660
vn -0.4837 -0.2536 0.8377
vn -0.3588 0.6965 0.6215
vn -0.4356 0.4909 0.7545
vn -0.1394 -0.9603 0.2415
vn -0.1394 0.9603 0.2415
vn -0.4356 -0.4909 0.7545
vn -0.4837 0.2536 0.8377
vn -0.2580 0.8566 0.4468
vn -0.3588 -0.6965 0.6215
vn -0.4468 0.8566 0.2580
vn -0.6215 -0.6965 0.3588
vn -0.8660 -0.0000 0.5000
vn -0.6215 0.6965 0.3588
vn -0.4468 -0.8566 0.2580
vn -0.8377 -0.2536 0.4837
vn -0.7545 0.4909 0.4356
vn -0.2415 -0.9603 0.1394
vn -0.2415 0.9603 0.1394
vn -0.7545 -0.4909 0.4356
vn -0.8377 0.2536 0.4837
vn -0.5159 -0.8566 -0.0000
vn -0.2789 -0.9603 -0.0000
vn -0.2789 0.9603 -0.0000
vn -0.8712 -0.4909 -0.0000
vn -0.9673 0.2536 -0.0000
vn -0.5159 0.8566 -0.0000
vn -0.7176 -0.6965 -0.0000
vn -1.0000 -0.0000 -0.0000
vn -0.7176 0.6965 -0.0000
vn -0.9673 -0.2536 -0.0000
vn -0.8712 0.4909 -0.0000
vn -0.4468 0.8566 -0.2580
vn -0.6215 0.6965 -0.3588
vn -0.4468 -0.8566 -0.2580
vn -0.8660 -0.0000 -0.5000
vn -0.8377 -0.2536 -0.4837
vn -0.7545 0.4909 -0.4356
vn -0.2415 -0.9603 -0.1394
vn -0.2415 0.9603 -0.1394
vn -0.7545 -0.4909 -0.4356
vn -0.8377 0.2536 -0.4837
vn -0.6215 -0.6965 -0.3588
vn -0.1394 -0.9603 -0.2415
vn -0.2580 0.8566 -0.4468
vn -0.3588 -0.6965 -0.6215
vn -0.5000 -0.0000 -0.8660
vn -0.3588 0.6965 -0.6215
vn -0.2580 -0.8566 -0.4468
vn -0.4837 -0.2536 -0.8377
vn -0.4356 0.4909 -0.7545
vn -0.1394 0.9603 -0.2415
vn -0.4356 -0.4909 -0.7545
vn -0.4837 0.2536 -0.8377
vt 0.750000 0.750000
vt 0.750000 0.583333
vt 0.750000 0.416667
vt 0.750000 0.333333
vt 0.666667 0.916667
vt 0.666667 0.833333
vt 0.666667 0.750000
vt 0.666667 0.666667
vt 0.666667 0.583333
vt 0.666667 0.500000
vt 0.666667 0.416667
vt 0.666667 0.333333
vt 0.666667 0.250000
vt 0.666667 0.166667
vt 0.666667 0.083333
vt 0.583333 0.916667
vt 0.583333 0.833333
vt 0.583333 0.750000
vt 0.583333 0.666667
vt 0.583333 0.583333
vt 0.583333 0.500000
vt 0.583333 0.416667
vt 0.583333 0.333333
vt 0.583333 0.250000
vt 0.583333 0.166667
vt 0.583333 0.083333
vt 0.500000 0.916667
vt 0.500000 0.833333
vt 0.500000 0.750000
vt 0.500000 0.666667
vt 0.500000 0.583333
vt 0.500000 0.500000
vt 0.500000 0.416667
vt 0.500000 0.333333
vt 0.500000 0.250000
vt 0.500000 0.166667
vt 0.500000 0.083333
vt 0.416667 0.916667
vt 0.416667 0.833333
vt 0.416667 0.750000
vt 0.416667 0.666667
vt 0.416667 0.583333
vt 0.416667 0.500000
vt 0.416667 0.416667
vt 0.416667 0.333333
vt 0.416667 0.250000
vt 0.416667 0.166667
vt 0.416667 0.083333
vt 0.333333 0.916667
vt 0.333333 0.833333
vt 0.333333 0.750000
vt 0.333333 0.666667
vt 0.333333 0.583333
vt 0.333333 0.500000
vt 0.333333 0.416667
vt 0.333333 0.333333
vt 0.333333 0.250000
vt 0.333333 0.166667
vt 0.333333 0.083333
vt 0.250000 0.916667
vt 0.250000 0.833333
vt 0.250000 0.750000
vt 0.250000 0.666667
vt 0.250000 0.583333
vt 0.250000 0.500000
vt 0.250000 0.416667
vt 0.250000 0.333333
vt 0.250000 0.250000
vt 0.250000 0.166667
vt 0.250000 0.083333
vt 0.166667 0.916667
vt 0.166667 0.833333
vt 0.166667 0.750000
vt 0.166667 0.666667
vt 0.166667 0.583333
vt 0.166667 0.500000
vt 0.166667 0.416667
vt 0.166667 0.333333
vt 0.166667 0.250000
vt 0.166667 0.166667
vt 0.166667 0.083333
vt 0.083333 0.916667
vt 0.083333 0.833333
vt 0.083333 0.750000
vt 0.083333 0.666667
vt 0.083333 0.583333
vt 0.083333 0.500000
vt 0.083333 0.416667
vt 0.083333 0.333333
vt 0.083333 0.250000
vt 0.083333 0.166667
vt 0.083333 0.083333
vt 0.708333 1.000000
vt 0.625000 1.000000
vt 0.541667 1.000000
vt 0.458333 1.000000
vt 0.375000 1.000000
vt 0.291667 1.000000
vt 0.208333 1.000000
vt 0.125000 1.000000
vt 0.041667 1.000000
vt 0.958333 1.000000
vt 0.875000 1.000000
vt 0.791667 1.000000
vt 0.000000 0.916667
vt 1.000000 0.916667
vt 0.000000 0.833333
vt 1.000000 0.833333
vt 0.000000 0.750000
vt 1.000000 0.750000
vt 0.000000 0.666667
vt 1.000000 0.666667
vt 0.000000 0.583333
vt 1.000000 0.583333
vt 0.000000 0.500000
vt 1.000000 0.500000
vt 0.000000 0.416667
vt 1.000000 0.416667
vt 0.000000 0.333333
vt 1.000000 0.333333
vt 0.000000 0.250000
vt 1.000000 0.250000
vt 0.000000 0.166667
vt 1.000000 0.166667
vt 0.000000 0.083333
vt 1.000000 0.083333
vt 0.916667 0.916667
vt 0.916667 0.833333
vt 0.916667 0.750000
vt 0.916667 0.666667
vt 0.916667 0.583333
vt 0.916667 0.500000
vt 0.916667 0.416667
vt 0.916667 0.333333
vt 0.916667 0.250000
vt 0.916667 0.166667
vt 0.916667 0.083333
vt 0.833333 0.916667
vt 0.833333 0.833333
vt 0.833333 0.750000
vt 0.833333 0.666667
vt 0.833333 0.583333
vt 0.833333 0.500000
vt 0.833333 0.416667
vt 0.833333 0.333333
vt 0.833333 0.250000
vt 0.833333 0.166667
vt 0.833333 0.083333
vt 0.750000 0.916667
vt 0.750000 0.833333
vt 0.750000 0.666667
vt 0.750000 0.500000
vt 0.750000 0.250000
vt 0.750000 0.166667
vt 0.750000 0.083333
vt 0.708333 0.000000
vt 0.625000 0.000000
vt 0.541667 0.000000
vt 0.458333 0.000000
vt 0.375000 0.000000
vt 0.291667 0.000000
vt 0.208333 0.000000
vt 0.125000 0.000000
vt 0.041667 0.000000
vt 0.958333 0.000000
vt 0.875000 0.000000
vt 0.791667 0.000000
s 1
f 132/154/1 15/15/2 133/155/3
f 127/149/4 93/93/5 5/5/6
f 3/3/7 12/12/8 4/4/9
f 129/151/10 9/9/11 2/2/12
f 134/156/13 133/155/3 15/15/2
f 127/149/4 6/6/14 128/150/15
f 131/153/16 12/12/8 13/13/17
f 130/152/18 9/9/11 10/10/19
f 128/150/15 7/7/20 1/1/21
f 131/153/16 14/14/22 132/154/1
f 3/3/7 10/10/19 11/11/23
f 129/151/10 7/7/20 8/8/24
f 9/9/11 21/21/25 10/10/19
f 6/6/14 18/18/26 7/7/20
f 13/13/17 25/25/27 14/14/22
f 10/10/19 22/22/28 11/11/23
f 7/7/20 19/19/29 8/8/24
f 15/15/2 25/25/27 26/26/30
f 5/5/6 93/94/5 16/16/31
f 11/11/23 23/23/32 12/12/8
f 8/8/24 20/20/33 9/9/11
f 134/157/13 15/15/2 26/26/30
f 5/5/6 17/17/34 6/6/14
f 13/13/17 23/23/32 24/24/35
f 22/22/28 34/34/36 23/23/32
f 20/20/33 30/30/37 31/31/38
f 134/158/13 26/26/30 37/37/39
f 17/17/34 27/27/40 28/28/41
f 24/24/35 34/34/36 35/35/42
f 20/20/33 32/32/43 21/21/25
f 18/18/26 28/28/41 29/29/44
f 24/24/35 36/36/45 25/25/27
f 22/22/28 32/32/43 33/33/46
f 18/18/26 30/30/37 19/19/29
f 26/26/30 36/36/45 37/37/39
f 16/16/31 93/95/5 27/27/40
f 33/33/46 43/43/47 44/44/48
f 29/29/44 41/41/49 30/30/37
f 36/36/45 48/48/50 37/37/39
f 27/27/40 93/96/5 38/38/51
f 33/33/46 45/45/52 34/34/36
f 31/31/38 41/41/49 42/42/53
f 134/159/13 37/37/39 48/48/50
f 27/27/40 39/39/54 28/28/41
f 34/34/36 46/46/55 35/35/42
f 31/31/38 43/43/47 32/32/43
f 29/29/44 39/39/54 40/40/56
f 35/35/42 47/47/57 36/36/45
f 45/45/52 57/57/58 46/46/55
f 42/42/53 54/54/59 43/43/47
f 39/39/54 51/51/60 40/40/56
f 46/46/55 58/58/61 47/47/57
f 44/44/48 54/54/59 55/55/62
f 40/40/56 52/52/63 41/41/49
f 48/48/50 58/58/61 59/59/64
f 38/38/51 93/97/5 49/49/65
f 44/44/48 56/56/66 45/45/52
f 41/41/49 53/53/67 42/42/53
f 134/160/13 48/48/50 59/59/64
f 38/38/51 50/50/68 39/39/54
f 49/49/65 93/98/5 60/60/69
f 55/55/62 67/67/70 56/56/66
f 52/52/63 64/64/71 53/53/67
f 134/161/13 59/59/64 70/70/72
f 50/50/68 60/60/69 61/61/73
f 56/56/66 68/68/74 57/57/58
f 53/53/67 65/65/75 54/54/59
f 51/51/60 61/61/73 62/62/76
f 57/57/58 69/69/77 58/58/61
f 55/55/62 65/65/75 66/66/78
f 51/51/60 63/63/79 52/52/63
f 59/59/64 69/69/77 70/70/72
f 68/68/74 80/80/80 69/69/77
f 66/66/78 76/76/81 77/77/82
f 63/63/79 73/73/83 74/74/84
f 69/69/77 81/81/85 70/70/72
f 60/60/69 93/99/5 71/71/86
f 67/67/70 77/77/82 78/78/87
f 64/64/71 74/74/84 75/75/88
f 134/162/13 70/70/72 81/81/85
f 60/60/69 72/72/89 61/61/73
f 67/67/70 79/79/90 68/68/74
f 64/64/71 76/76/81 65/65/75
f 62/62/76 72/72/89 73/73/83
f 71/71/86 83/83/91 72/72/89
f 78/78/87 90/90/92 79/79/90
f 75/75/88 87/87/93 76/76/81
f 72/72/89 84/84/94 73/73/83
f 79/79/90 91/91/95 80/80/80
f 77/77/82 87/87/93 88/88/96
f 73/73/83 85/85/97 74/74/84
f 81/81/85 91/91/95 92/92/98
f 71/71/86 93/100/5 82/82/99
f 78/78/87 88/88/96 89/89/100
f 74/74/84 86/86/101 75/75/88
f 134/163/13 81/81/85 92/92/98
f 92/92/98 103/123/102 104/125/103
f 82/82/99 93/101/5 94/105/104
f 88/88/96 101/119/105 89/89/100
f 85/85/97 98/113/106 86/86/101
f 134/164/13 92/92/98 104/125/103
f 83/83/91 94/105/104 95/107/107
f 90/90/92 101/119/105 102/121/108
f 86/86/101 99/115/109 87/87/93
f 84/84/94 95/107/107 96/109/110
f 90/90/92 103/123/102 91/91/95
f 88/88/96 99/115/109 100/117/111
f 84/84/94 97/111/112 85/85/97
f 96/110/110 106/128/113 107/129/114
f 102/122/108 114/136/115 103/124/102
f 100/118/111 110/132/116 111/133/117
f 96/110/110 108/130/118 97/112/112
f 103/124/102 115/137/119 104/126/103
f 94/106/104 93/102/5 105/127/120
f 100/118/111 112/134/121 101/120/105
f 97/112/112 109/131/122 98/114/106
f 134/165/13 104/126/103 115/137/119
f 94/106/104 106/128/113 95/108/107
f 102/122/108 112/134/121 113/135/123
f 98/114/106 110/132/116 99/116/109
f 134/166/13 115/137/119 126/148/124
f 105/127/120 117/139/125 106/128/113
f 112/134/121 124/146/126 113/135/123
f 109/131/122 121/143/127 110/132/116
f 106/128/113 118/140/128 107/129/114
f 113/135/123 125/147/129 114/136/115
f 111/133/117 121/143/127 122/144/130
f 107/129/114 119/141/131 108/130/118
f 115/137/119 125/147/129 126/148/124
f 105/127/120 93/103/5 116/138/132
f 111/133/117 123/145/133 112/134/121
f 108/130/118 120/142/134 109/131/122
f 118/140/128 129/151/10 119/141/131
f 126/148/124 132/154/1 133/155/3
f 116/138/132 93/104/5 127/149/4
f 122/144/130 4/4/9 123/145/133
f 120/142/134 129/151/10 2/2/12
f 134/167/13 126/148/124 133/155/3
f 117/139/125 127/149/4 128/150/15
f 124/146/126 4/4/9 131/153/16
f 120/142/134 130/152/18 121/143/127
f 118/140/128 128/150/15 1/1/21
f 124/146/126 132/154/1 125/147/129
f 122/144/130 130/152/18 3/3/7
f 132/154/1 14/14/22 15/15/2
f 3/3/7 11/11/23 12/12/8
f 129/151/10 8/8/24 9/9/11
f 127/149/4 5/5/6 6/6/14
f 131/153/16 4/4/9 12/12/8
f 130/152/18 2/2/12 9/9/11
f 128/150/15 6/6/14 7/7/20
f 131/153/16 13/13/17 14/14/22
f 3/3/7 130/152/18 10/10/19
f 129/151/10 1/1/21 7/7/20
f 9/9/11 20/20/33 21/21/25
f 6/6/14 17/17/34 18/18/26
f 13/13/17 24/24/35 25/25/27
f 10/10/19 21/21/25 22/22/28
f 7/7/20 18/18/26 19/19/29
f 15/15/2 14/14/22 25/25/27
f 11/11/23 22/22/28 23/23/32
f 8/8/24 19/19/29 20/20/33
f 5/5/6 16/16/31 17/17/34
f 13/13/17 12/12/8 23/23/32
f 22/22/28 33/33/46 34/34/36
f 20/20/33 19/19/29 30/30/37
f 17/17/34 16/16/31 27/27/40
f 24/24/35 23/23/32 34/34/36
f 20/20/33 31/31/38 32/32/43
f 18/18/26 17/17/34 28/28/41
f 24/24/35 35/35/42 36/36/45
f 22/22/28 21/21/25 32/32/43
f 18/18/26 29/29/44 30/30/37
f 26/26/30 25/25/27 36/36/45
f 33/33/46 32/32/43 43/43/47
f 29/29/44 40/40/56 41/41/49
f 36/36/45 47/47/57 48/48/50
f 33/33/46 44/44/48 45/45/52
f 31/31/38 30/30/37 41/41/49
f 27/27/40 38/38/51 39/39/54
f 34/34/36 45/45/52 46/46/55
f 31/31/38 42/42/53 43/43/47
f 29/29/44 28/28/41 39/39/54
f 35/35/42 46/46/55 47/47/57
f 45/45/52 56/56/66 57/57/58
f 42/42/53 53/53/67 54/54/59
f 39/39/54 50/50/68 51/51/60
f 46/46/55 57/57/58 58/58/61
f 44/44/48 43/43/47 54/54/59
f 40/40/56 51/51/60 52/52/63
f 48/48/50 47/47/57 58/58/61
f 44/44/48 55/55/62 56/56/66
f 41/41/49 52/52/63 53/53/67
f 38/38/51 49/49/65 50/50/68
f 55/55/62 66/66/78 67/67/70
f 52/52/63 63/63/79 64/64/71
f 50/50/68 49/49/65 60/60/69
f 56/56/66 67/67/70 68/68/74
f 53/53/67 64/64/71 65/65/75
f 51/51/60 50/50/68 61/61/73
f 57/57/58 68/68/74 69/69/77
f 55/55/62 54/54/59 65/65/75
f 51/51/60 62/62/76 63/63/79
f 59/59/64 58/58/61 69/69/77
f 68/68/74 79/79/90 80/80/80
f 66/66/78 65/65/75 76/76/81
f 63/63/79 62/62/76 73/73/83
f 69/69/77 80/80/80 81/81/85
f 67/67/70 66/66/78 77/77/82
f 64/64/71 63/63/79 74/74/84
f 60/60/69 71/71/86 72/72/89
f 67/67/70 78/78/87 79/79/90
f 64/64/71 75/75/88 76/76/81
f 62/62/76 61/61/73 72/72/89
f 71/71/86 82/82/99 83/83/91
f 78/78/87 89/89/100 90/90/92
f 75/75/88 86/86/101 87/87/93
f 72/72/89 83/83/91 84/84/94
f 79/79/90 90/90/92 91/91/95
f 77/77/82 76/76/81 87/87/93
f 73/73/83 84/84/94 85/85/97
f 81/81/85 80/80/80 91/91/95
f 78/78/87 77/77/82 88/88/96
f 74/74/84 85/85/97 86/86/101
f 92/92/98 91/91/95 103/123/102
f 88/88/96 100/117/111 101/119/105
f 85/85/97 97/111/112 98/113/106
f 83/83/91 82/82/99 94/105/104
f 90/90/92 89/89/100 101/119/105
f 86/86/101 98/113/106 99/115/109
f 84/84/94 83/83/91 95/107/107
f 90/90/92 102/121/108 103/123/102
f 88/88/96 87/87/93 99/115/109
f 84/84/94 96/109/110 97/111/112
f 96/110/110 95/108/107 106/128/113
f 102/122/108 113/135/123 114/136/115
f 100/118/111 99/116/109 110/132/116
f 96/110/110 107/129/114 108/130/118
f 103/124/102 114/136/115 115/137/119
f 100/118/111 111/133/117 112/134/121
f 97/112/112 108/130/118 109/131/122
f 94/106/104 105/127/120 106/128/113
f 102/122/108 101/120/105 112/134/121
f 98/114/106 109/131/122 110/132/116
f 105/127/120 116/138/132 117/139/125
f 112/134/121 123/145/133 124/146/126
f 109/131/122 120/142/134 121/143/127
f 106/128/113 117/139/125 118/140/128
f 113/135/123 124/146/126 125/147/129
f 111/133/117 110/132/116 121/143/127
f 107/129/114 118/140/128 119/141/131
f 115/137/119 114/136/115 125/147/129
f 111/133/117 122/144/130 123/145/133
f 108/130/118 119/141/131 120/142/134
f 118/140/128 1/1/21 129/151/10
f 126/148/124 125/147/129 132/154/1
f 122/144/130 3/3/7 4/4/9
f 120/142/134 119/141/131 129/151/10
f 117/139/125 116/138/132 127/149/4
f 124/146/126 123/145/133 4/4/9
f 120/142/134 2/2/12 130/152/18
f 118/140/128 117/139/125 128/150/15
f 124/146/126 131/153/16 132/154/1
f 122/144/130 121/143/127 130/152/18
